<?xml version="1.0" encoding="utf-8"?>
<!-- Generator: Adobe Illustrator 19.2.1, SVG Export Plug-In . SVG Version: 6.00 Build 0)  -->
<svg version="1.1" id="Layer_1" xmlns="http://www.w3.org/2000/svg" xmlns:xlink="http://www.w3.org/1999/xlink" x="0px" y="0px"
	 viewBox="0 0 246.3 32.3" style="enable-background:new 0 0 246.3 32.3;" xml:space="preserve">
<style type="text/css">
	.st0{fill:#ED2024;}
</style>
<g>
	<g>
		<path class="st0" d="M15,0.4l2,19.9l1.9-19.9h5.4l-4,31.4h-6.4l-1.6-17.3l-1.6,17.3H3.9L0,0.4h5.8l1.8,20.1l2-20.1H15z"/>
		<path class="st0" d="M32.4,31.8h-5.6V0.4h5.6v12h3v-12H41v31.4h-5.6V18.5h-3V31.8z"/>
		<path class="st0" d="M52.3,26.5h-3.4l-0.5,5.3h-5l4-31.4h6.7l4.3,31.4h-5.4L52.3,26.5z M49.5,21.1h2.3l-1.2-10.8L49.5,21.1z"/>
		<path class="st0" d="M72,0.4v5.5h-4v25.9h-5.6V5.9h-4V0.4H72z"/>
		<path class="st0" d="M88.8,26.5h-3.4l-0.5,5.3h-5l4-31.4h6.7l4.3,31.4h-5.4L88.8,26.5z M86,21.1h2.3l-1.2-10.8L86,21.1z"/>
		<path class="st0" d="M97.3,0.4h8.5c3.8,0,5.4,1.4,5.4,5.6v4.2c0,2.6-1.5,4.1-2.7,4.4c1.6,0.5,3.1,1.6,3.1,4.9v5.2
			c0,4.9-1.7,7.1-5.2,7.1h-9.2V0.4z M103,5.2v7.5h1.3c1,0,1.5-0.4,1.5-1.9V6.9c0-1.1-0.4-1.7-1.4-1.7H103z M103,17.7v9.1h1.6
			c1,0,1.4-0.3,1.4-2.1v-5.1c0-1.3-0.3-1.9-1.6-1.9H103z"/>
		<path class="st0" d="M129.5,24.6c0,4.6-2.4,7.6-6.7,7.6h-1.3c-4.4,0-6.8-2.7-6.8-7.6V8c0-4.9,1.9-8,6.8-8h1.3c4.9,0,6.7,3.2,6.7,8
			V24.6z M123.6,7.6c0-1.4-0.5-2.1-1.5-2.1c-1.1,0-1.5,0.7-1.5,2.1v17.2c0,1,0.4,1.9,1.6,1.9c1.1,0,1.4-0.9,1.4-1.9V7.6z"/>
		<path class="st0" d="M132.8,0.4h5.8v24.3c0,1.3,0.5,1.9,1.4,1.9c0.9,0,1.4-0.6,1.4-1.9V0.4h5.8v24.1c0,5.2-2.4,7.8-6.5,7.8h-1.4
			c-4.1,0-6.4-2.5-6.4-7.8V0.4z"/>
		<path class="st0" d="M163.6,0.4v5.5h-4v25.9H154V5.9h-4V0.4H163.6z"/>
		<path class="st0" d="M177.9,0.4l3.8,16v-16h5v31.4h-4.8l-4.3-17.2v17.2h-5V0.4H177.9z"/>
		<path class="st0" d="M204.7,24.6c0,4.6-2.4,7.6-6.7,7.6h-1.3c-4.4,0-6.8-2.7-6.8-7.6V8c0-4.9,1.9-8,6.8-8h1.3c4.9,0,6.7,3.2,6.7,8
			V24.6z M198.9,7.6c0-1.4-0.5-2.1-1.5-2.1c-1.1,0-1.5,0.7-1.5,2.1v17.2c0,1,0.4,1.9,1.6,1.9c1.1,0,1.4-0.9,1.4-1.9V7.6z"/>
		<path class="st0" d="M221.9,0.4l2,19.9l1.9-19.9h5.4l-4,31.4h-6.4l-1.6-17.3l-1.6,17.3h-6.6l-3.9-31.4h5.8l1.8,20.1l2-20.1H221.9z
			"/>
		<path class="st0" d="M236.9,24.7v-5.4c0-2,0.2-2.8,1.4-4.7l1.5-2.4c0.8-1.3,0.9-2.2,0.9-3.6V6.6c0-1.1-0.3-1.5-1.1-1.5
			c-0.8,0-1.1,0.4-1.1,1.5v4.8h-5.2v-5c0-3.5,0.9-6.4,5.7-6.4h1.1c4.6,0,6.1,2.4,6.1,6.1v2.2c0,2.5-0.3,4.1-1.9,6.1l-2.1,2.8
			c-0.8,1.2-1.1,1.6-1.1,3.6v3.9H236.9z M241.6,31.8h-5v-6.1h5V31.8z"/>
	</g>
</g>
</svg>
