<?xml version="1.0" encoding="utf-8"?>
<!-- Generator: Adobe Illustrator 19.2.1, SVG Export Plug-In . SVG Version: 6.00 Build 0)  -->
<svg version="1.1" id="Layer_1" xmlns="http://www.w3.org/2000/svg" xmlns:xlink="http://www.w3.org/1999/xlink" x="0px" y="0px"
	 viewBox="0 0 100 100" style="enable-background:new 0 0 100 100;" xml:space="preserve">
<g>
	<path d="M49.9,0.9C23,0.7,1.1,22.7,0.8,49.5C0.6,76.1,21.9,98.5,49,98.9c27.6,0.5,49.6-21.6,50-48.3C99.3,22.6,76.5,0.7,49.9,0.9z
		 M72.9,70.5c-0.1,0.3-0.1,0.6-0.3,0.9c-0.3,0.8-1,1.3-1.8,1.6c-0.1,0-0.1,0.1-0.2,0.1c-1,0.3-2-0.1-2.9-0.6
		c-3.6-2.2-7.5-3.8-11.6-4.8c-4.9-1.3-9.9-1.8-15-1.7c-5.3,0.1-10.5,0.8-15.6,2c-1.3,0.3-2.5,0.2-3.5-0.9c-0.3-0.3-0.5-0.7-0.7-1.1
		c0-0.1-0.1-0.3-0.1-0.4c0-0.1,0-0.3-0.1-0.4c-0.1-1.5,0.9-2.9,2.7-3.3c2.2-0.5,4.5-0.9,6.7-1.3c3.9-0.6,7.8-1,11.1-0.9
		c8.8-0.1,16.6,1.4,24.1,4.7c2,0.9,3.8,2,5.7,3c1,0.6,1.5,1.5,1.5,2.6C73,70.2,72.9,70.4,72.9,70.5z M79,57
		c-0.1,0.6-0.4,1.2-0.8,1.6c-0.6,0.8-1.5,1.3-2.6,1.5c-0.2,0-0.4,0.1-0.6,0c-0.5,0-1-0.2-1.4-0.4c-0.1-0.1-0.3-0.1-0.4-0.2
		c-1.5-0.9-3-1.7-4.5-2.4c-0.8-0.4-1.6-0.8-2.5-1.1c-4.9-2-10.1-3.3-15.4-4.1c-0.9-0.1-1.8-0.2-2.6-0.3c-3.2-0.3-6.4-0.4-9.6-0.3
		c-4.8,0.2-9.6,0.9-14.2,2.3c-1.4,0.4-2.8,0.1-3.8-0.7c-0.6-0.5-1-1.2-1.2-2c0-0.1,0-0.2-0.1-0.4c0-0.2-0.1-0.5-0.1-0.7
		s0-0.4,0.1-0.6c0.2-1.5,1.2-2.6,2.7-3c0.8-0.2,1.5-0.4,2.3-0.6c1.6-0.4,3.3-0.8,4.9-1.1c0.7-0.1,1.4-0.3,2.1-0.4
		c0.8-0.1,1.7-0.3,2.5-0.4c2.5-0.3,5-0.4,7.6-0.4c0.9,0,1.8,0,2.7,0.1c9.8,0.4,19.2,2.3,28,6.5c0.5,0.2,0.9,0.5,1.4,0.7
		c0.5,0.3,1.1,0.6,1.6,0.9c0.7,0.4,1.3,0.7,2,1.1c0.3,0.2,0.6,0.4,0.9,0.7c0.5,0.5,0.8,1.1,1,1.7C79.1,55.8,79.1,56.4,79,57z
		 M83.6,44.5c-0.2,0.1-0.3,0.2-0.5,0.2c-1.1,0.4-2.2,0.5-3.3,0.1c-0.3-0.1-0.5-0.2-0.8-0.4c-3.3-1.9-6.7-3.4-10.2-4.5
		c-3.9-1.3-7.9-2.2-11.9-2.8c-0.8-0.1-1.6-0.2-2.4-0.3c-2.3-0.3-4.7-0.5-7.1-0.6c-0.8,0-1.6-0.1-2.5-0.1c-1.9,0-3.7,0-5.6,0
		c-1.3,0-2.7,0.1-4,0.2c-4.5,0.4-9,1.1-13.4,2.4c-2.6,0.7-5.1-0.7-5.8-3.2c-0.1-0.3-0.2-0.6-0.2-0.9c-0.2-2.2,1.1-4.2,3.4-4.9
		c0.8-0.2,1.6-0.5,2.4-0.7c2.9-0.8,5.8-1.3,8.8-1.7c1.1-0.1,2.2-0.3,3.2-0.4c2.9-0.3,5.6-0.4,7.5-0.4c8.8,0,16.5,0.8,23.9,2.5
		c2.5,0.6,4.9,1.3,7.3,2.1c1,0.3,1.9,0.7,2.9,1c2.9,1.1,5.7,2.4,8.4,4c1.7,1,2.6,2.6,2.4,4.6C85.8,42.5,84.9,43.7,83.6,44.5z"/>
</g>
</svg>
